<?xml version="1.0" standalone="no"?>
<!DOCTYPE svg PUBLIC "-//W3C//DTD SVG 20010904//EN"
 "http://www.w3.org/TR/2001/REC-SVG-20010904/DTD/svg10.dtd">
<svg version="1.0" xmlns="http://www.w3.org/2000/svg"
 width="16.000000pt" height="16.000000pt" viewBox="0 0 16.000000 16.000000"
 preserveAspectRatio="xMidYMid meet">
<metadata>
Created by potrace 1.11, written by Peter Selinger 2001-2013
</metadata>
<g transform="translate(0.000000,16.000000) scale(0.005000,-0.005000)"
fill="#000000" stroke="none">
<path d="M400 3050 l0 -50 -50 0 -50 0 0 -50 0 -50 150 0 150 0 0 -50 0 -50
50 0 50 0 0 -50 0 -50 50 0 50 0 0 -50 0 -50 50 0 50 0 0 50 0 50 -50 0 -50 0
0 50 0 50 -50 0 -50 0 0 50 0 50 50 0 50 0 0 50 0 50 -50 0 -50 0 0 50 0 50
-150 0 -150 0 0 -50z"/>
<path d="M2500 3050 l0 -50 -100 0 -100 0 0 -50 0 -50 -100 0 -100 0 0 -50 0
-50 -150 0 -150 0 0 -50 0 -50 -100 0 -100 0 0 -350 0 -350 100 0 100 0 0 50
0 50 50 0 50 0 0 50 0 50 50 0 50 0 0 50 0 50 50 0 50 0 0 50 0 50 -50 0 -50
0 0 50 0 50 -50 0 -50 0 0 50 0 50 -50 0 -50 0 0 50 0 50 100 0 100 0 0 -50 0
-50 50 0 50 0 0 -50 0 -50 50 0 50 0 0 -150 0 -150 -50 0 -50 0 0 -50 0 -50
-50 0 -50 0 0 -50 0 -50 50 0 50 0 0 -50 0 -50 -200 0 -200 0 0 -50 0 -50 50
0 50 0 0 -100 0 -100 -150 0 -150 0 0 100 0 100 50 0 50 0 0 50 0 50 -150 0
-150 0 0 -50 0 -50 50 0 50 0 0 -200 0 -200 -50 0 -50 0 0 -50 0 -50 150 0
150 0 0 50 0 50 -50 0 -50 0 0 50 0 50 150 0 150 0 0 -50 0 -50 -50 0 -50 0 0
-50 0 -50 150 0 150 0 0 -100 0 -100 -50 0 -50 0 0 50 0 50 -150 0 -150 0 0
-350 0 -350 100 0 100 0 0 50 0 50 50 0 50 0 0 50 0 50 50 0 50 0 0 50 0 50
50 0 50 0 0 50 0 50 50 0 50 0 0 50 0 50 50 0 50 0 0 50 0 50 150 0 150 0 0
-50 0 -50 50 0 50 0 0 50 0 50 50 0 50 0 0 50 0 50 50 0 50 0 0 50 0 50 50 0
50 0 0 50 0 50 -50 0 -50 0 0 100 0 100 -450 0 -450 0 0 -100 0 -100 -50 0
-50 0 0 200 0 200 150 0 150 0 0 50 0 50 50 0 50 0 0 50 0 50 50 0 50 0 0 150
0 150 -50 0 -50 0 0 200 0 200 50 0 50 0 0 50 0 50 50 0 50 0 0 50 0 50 150 0
150 0 0 50 0 50 -50 0 -50 0 0 50 0 50 -100 0 -100 0 0 -50z"/>
<path d="M900 2850 l0 -50 50 0 50 0 0 -300 0 -300 50 0 50 0 0 100 0 100 50
0 50 0 0 100 0 100 100 0 100 0 0 -50 0 -50 50 0 50 0 0 100 0 100 -100 0
-100 0 0 50 0 50 -150 0 -150 0 0 50 0 50 -50 0 -50 0 0 -50z"/>
<path d="M300 2750 l0 -50 -50 0 -50 0 0 -50 0 -50 -50 0 -50 0 0 -50 0 -50
-50 0 -50 0 0 -50 0 -50 50 0 50 0 0 -50 0 -50 50 0 50 0 0 -50 0 -50 50 0 50
0 0 -50 0 -50 50 0 50 0 0 -50 0 -50 50 0 50 0 0 50 0 50 50 0 50 0 0 50 0 50
50 0 50 0 0 50 0 50 50 0 50 0 0 100 0 100 -50 0 -50 0 0 50 0 50 -50 0 -50 0
0 50 0 50 -50 0 -50 0 0 50 0 50 -100 0 -100 0 0 -50z"/>
<path d="M2600 2750 l0 -50 -50 0 -50 0 0 -50 0 -50 -50 0 -50 0 0 -100 0
-100 50 0 50 0 0 -50 0 -50 50 0 50 0 0 -50 0 -50 50 0 50 0 0 -50 0 -50 50 0
50 0 0 50 0 50 50 0 50 0 0 50 0 50 50 0 50 0 0 50 0 50 50 0 50 0 0 50 0 50
-50 0 -50 0 0 50 0 50 -50 0 -50 0 0 50 0 50 -50 0 -50 0 0 50 0 50 -100 0
-100 0 0 -50z"/>
<path d="M1400 2350 l0 -50 -50 0 -50 0 0 -50 0 -50 50 0 50 0 0 -50 0 -50 50
0 50 0 0 150 0 150 -50 0 -50 0 0 -50z"/>
<path d="M800 2050 l0 -150 -50 0 -50 0 0 -50 0 -50 -50 0 -50 0 0 -50 0 -50
150 0 150 0 0 250 0 250 -50 0 -50 0 0 -150z"/>
<path d="M1100 2050 l0 -50 -50 0 -50 0 0 -100 0 -100 50 0 50 0 0 -50 0 -50
50 0 50 0 0 200 0 200 -50 0 -50 0 0 -50z"/>
<path d="M2400 1850 l0 -50 -50 0 -50 0 0 -50 0 -50 150 0 150 0 0 50 0 50
-50 0 -50 0 0 50 0 50 -50 0 -50 0 0 -50z"/>
<path d="M600 1500 l0 -100 -50 0 -50 0 0 50 0 50 -100 0 -100 0 0 -50 0 -50
-50 0 -50 0 0 -50 0 -50 50 0 50 0 0 -50 0 -50 100 0 100 0 0 -100 0 -100 50
0 50 0 0 50 0 50 150 0 150 0 0 -50 0 -50 50 0 50 0 0 -50 0 -50 50 0 50 0 0
-50 0 -50 100 0 100 0 0 -50 0 -50 50 0 50 0 0 100 0 100 -50 0 -50 0 0 50 0
50 50 0 50 0 0 50 0 50 -150 0 -150 0 0 50 0 50 -100 0 -100 0 0 50 0 50 100
0 100 0 0 50 0 50 -50 0 -50 0 0 50 0 50 -50 0 -50 0 0 50 0 50 -150 0 -150 0
0 -100z"/>
</g>
</svg>
